<?xml version="1.0" standalone="no"?>
<!DOCTYPE svg PUBLIC "-//W3C//DTD SVG 20010904//EN"
 "http://www.w3.org/TR/2001/REC-SVG-20010904/DTD/svg10.dtd">
<svg version="1.0" xmlns="http://www.w3.org/2000/svg"
 width="1200.000000pt" height="1200.000000pt" viewBox="0 0 1200.000000 1200.000000"
 preserveAspectRatio="xMidYMid meet">

<g transform="translate(0.000000,1200.000000) scale(0.100000,-0.100000)"
style="fill:var(--svg);" stroke="none">
<path d="M2890 11052 c0 -522 -3 -1206 -7 -1520 l-6 -572 -719 0 -718 0 0 680
0 680 -695 0 -695 0 2 -692 3 -693 692 -3 693 -2 0 -1415 0 -1415 720 0 720 0
0 -1460 0 -1460 -715 0 -715 0 -2 662 -3 663 -722 3 -723 2 0 -720 0 -720 673
-2 672 -3 -4 -757 -3 -758 791 0 791 0 0 -775 0 -775 2305 0 2305 0 0 795 0
795 750 0 750 0 0 765 0 765 735 0 735 0 0 715 0 715 -735 0 -735 0 0 1490 0
1490 735 0 735 0 0 715 0 715 -735 0 -735 0 0 1520 0 1520 -3070 0 -3070 0 0
-948z m1739 -453 c124 -33 478 -128 786 -210 642 -170 1052 -280 1310 -349 99
-27 302 -81 450 -120 149 -40 367 -98 485 -129 118 -32 441 -118 718 -192
l502 -133 0 -446 0 -445 -918 -3665 -918 -3665 -1902 -3 -1902 -2 0 305 0 305
-685 0 -685 0 2 543 3 542 555 5 555 5 43 29 42 29 0 2143 0 2144 101 282 c56
156 125 351 154 433 30 83 85 238 123 345 38 107 140 393 226 635 87 242 178
496 203 565 24 69 81 226 124 350 44 124 102 286 129 360 26 74 62 176 80 225
l31 90 77 42 c42 23 79 42 81 43 1 0 105 -27 230 -61z"/>
<path d="M4645 9089 c-10 -30 -245 -978 -245 -991 0 -10 95 -39 313 -97 171
-45 387 -103 479 -128 92 -25 173 -43 180 -40 17 6 264 995 252 1007 -5 5
-139 43 -299 85 -159 42 -366 97 -460 122 -220 59 -214 58 -220 42z"/>
<path d="M6845 8507 c-3 -7 -60 -236 -128 -509 l-124 -497 51 -15 c28 -8 80
-22 116 -31 36 -9 146 -38 245 -65 482 -130 568 -151 574 -142 9 16 254 1002
250 1007 -3 2 -101 29 -219 61 -118 31 -298 79 -400 106 -102 27 -225 60 -273
73 -64 17 -89 21 -92 12z"/>
<path d="M5375 7540 c-37 -148 -70 -270 -74 -270 -3 1 -127 34 -276 74 -148
40 -271 72 -272 71 -7 -4 -373 -1482 -371 -1494 3 -15 538 -163 549 -152 4 3
34 121 69 261 35 140 66 258 69 262 6 7 1129 -287 1140 -298 4 -3 -100 -438
-125 -524 -3 -13 29 -24 159 -58 89 -23 199 -52 244 -64 45 -13 84 -20 86 -18
12 12 377 1494 370 1500 -4 4 -73 23 -153 44 -277 71 -415 112 -415 122 0 6
29 126 65 266 36 141 62 259 60 262 -3 3 -235 66 -515 141 -281 75 -517 138
-526 141 -14 4 -27 -39 -84 -266z"/>
<path d="M10612 5288 l3 -693 693 -3 692 -2 0 695 0 695 -695 0 -695 0 2 -692z"/>
<path d="M9128 779 c-2 -380 -1 -693 1 -695 2 -2 314 -4 693 -4 l688 0 0 695
0 695 -690 0 -690 0 -2 -691z"/>
</g>
</svg>
