<svg id="svg" version="1.1" xmlns="http://www.w3.org/2000/svg" xmlns:xlink="http://www.w3.org/1999/xlink" width="400" height="400" viewBox="0, 0, 400,400"><g id="svgg"><path id="path0" d="M127.800 129.403 C 123.035 130.014,120.746 130.483,117.000 131.618 C 115.460 132.084,113.660 132.610,113.000 132.787 C 111.424 133.208,110.550 133.530,108.504 134.443 C 107.572 134.859,106.695 135.200,106.556 135.200 C 102.204 135.200,83.871 148.728,78.546 155.870 C 77.918 156.711,77.300 157.490,77.172 157.600 C 76.801 157.920,73.748 162.516,72.767 164.231 C 69.514 169.922,67.185 175.331,65.634 180.800 C 65.166 182.450,64.624 184.340,64.429 185.000 C 64.235 185.660,63.866 187.460,63.609 189.000 C 63.352 190.540,62.975 192.775,62.771 193.967 C 62.274 196.870,62.297 213.461,62.803 216.767 C 64.495 227.830,65.382 231.358,68.389 239.000 C 76.593 259.844,96.321 276.043,120.000 281.378 C 128.117 283.207,129.585 283.364,138.600 283.364 C 147.702 283.364,149.379 283.181,157.200 281.333 C 159.510 280.787,161.850 280.250,162.400 280.140 C 162.950 280.030,163.760 279.790,164.200 279.608 C 164.640 279.426,166.530 278.686,168.400 277.964 C 185.760 271.261,199.670 258.700,207.140 242.979 C 208.075 241.010,208.978 239.130,209.146 238.800 C 211.015 235.141,213.655 224.241,214.795 215.484 C 215.554 209.643,215.070 197.534,213.784 190.200 C 213.290 187.388,212.693 184.531,212.404 183.600 C 212.233 183.050,211.871 181.790,211.600 180.800 C 211.030 178.718,210.471 176.979,209.960 175.700 C 209.762 175.205,209.441 174.395,209.248 173.900 C 201.613 154.403,183.326 137.922,163.200 132.401 C 162.210 132.129,160.950 131.769,160.400 131.600 C 151.852 128.974,138.279 128.059,127.800 129.403 M143.323 166.012 C 157.471 168.039,168.267 176.244,173.090 188.636 C 174.268 191.662,174.540 192.615,175.649 197.600 C 177.356 205.275,175.708 218.503,172.115 225.975 C 157.226 256.940,110.723 251.854,102.855 218.400 C 97.982 197.678,105.703 177.543,121.400 170.040 C 129.344 166.243,136.175 164.988,143.323 166.012 " stroke="none" fill="#fafafa" fill-rule="evenodd"/><path id="path1" d="M137.100 128.693 C 138.035 128.777,139.565 128.777,140.500 128.693 C 141.435 128.609,140.670 128.540,138.800 128.540 C 136.930 128.540,136.165 128.609,137.100 128.693 M129.700 129.076 C 130.085 129.176,130.715 129.176,131.100 129.076 C 131.485 128.975,131.170 128.893,130.400 128.893 C 129.630 128.893,129.315 128.975,129.700 129.076 M146.500 129.076 C 146.885 129.176,147.515 129.176,147.900 129.076 C 148.285 128.975,147.970 128.893,147.200 128.893 C 146.430 128.893,146.115 128.975,146.500 129.076 M244.268 131.465 C 243.745 131.989,243.955 279.795,244.480 280.320 C 245.171 281.011,282.029 281.011,282.720 280.320 C 283.083 279.957,283.200 273.992,283.200 255.923 L 283.200 232.006 307.100 231.903 L 331.000 231.800 331.111 215.800 C 331.172 207.000,331.124 199.395,331.004 198.900 L 330.785 198.000 306.992 198.000 L 283.200 198.000 283.200 181.800 L 283.200 165.600 309.751 165.600 C 331.706 165.600,336.381 165.505,336.756 165.054 C 337.081 164.661,337.180 159.841,337.104 147.954 L 337.000 131.400 290.768 131.298 C 265.341 131.242,244.416 131.317,244.268 131.465 M137.491 165.889 C 138.201 165.977,139.461 165.979,140.291 165.892 C 141.121 165.805,140.540 165.733,139.000 165.731 C 137.460 165.729,136.781 165.800,137.491 165.889 M62.151 203.600 C 62.151 206.130,62.216 207.165,62.296 205.900 C 62.375 204.635,62.375 202.565,62.296 201.300 C 62.216 200.035,62.151 201.070,62.151 203.600 M176.131 206.600 C 176.133 208.140,176.205 208.721,176.292 207.891 C 176.379 207.061,176.377 205.801,176.289 205.091 C 176.200 204.381,176.129 205.060,176.131 206.600 M135.905 246.683 C 136.402 246.779,137.122 246.775,137.505 246.675 C 137.887 246.575,137.480 246.496,136.600 246.501 C 135.720 246.505,135.407 246.587,135.905 246.683 M140.500 246.676 C 140.885 246.776,141.515 246.776,141.900 246.676 C 142.285 246.575,141.970 246.493,141.200 246.493 C 140.430 246.493,140.115 246.575,140.500 246.676 M132.100 283.476 C 132.485 283.576,133.115 283.576,133.500 283.476 C 133.885 283.375,133.570 283.293,132.800 283.293 C 132.030 283.293,131.715 283.375,132.100 283.476 M143.700 283.476 C 144.085 283.576,144.715 283.576,145.100 283.476 C 145.485 283.375,145.170 283.293,144.400 283.293 C 143.630 283.293,143.315 283.375,143.700 283.476 " stroke="none" fill="#fb6304" fill-rule="evenodd"/><path id="path2" d="M0.000 200.000 L 0.000 400.000 200.000 400.000 L 400.000 400.000 400.000 200.000 L 400.000 0.000 200.000 0.000 L 0.000 0.000 0.000 200.000 M151.000 129.431 C 155.697 130.171,157.605 130.588,161.000 131.617 C 162.540 132.084,164.340 132.608,165.000 132.781 C 180.975 136.972,198.495 151.773,206.586 167.913 C 209.338 173.402,210.426 176.113,211.600 180.400 C 211.871 181.390,212.235 182.650,212.408 183.200 C 214.153 188.733,215.201 197.701,215.201 207.093 C 215.200 214.857,214.760 218.988,213.142 226.400 C 207.966 250.121,191.653 269.089,168.800 277.957 C 166.930 278.683,165.040 279.427,164.600 279.611 C 163.020 280.272,155.894 281.951,150.800 282.863 C 146.737 283.590,130.463 283.590,126.400 282.863 C 117.886 281.339,112.497 279.817,106.800 277.325 C 87.546 268.906,74.469 255.454,67.406 236.800 C 63.682 226.964,62.310 218.516,62.254 205.069 C 62.215 195.641,62.406 193.646,64.061 186.200 C 64.846 182.666,65.020 182.023,66.161 178.400 C 67.915 172.829,73.831 161.136,76.125 158.703 C 76.386 158.427,77.384 157.169,78.342 155.909 C 84.218 148.180,96.260 139.140,105.600 135.446 C 106.590 135.055,107.940 134.494,108.600 134.200 C 109.935 133.606,113.647 132.372,116.400 131.607 C 117.390 131.332,118.650 130.967,119.200 130.796 C 126.206 128.613,141.612 127.951,151.000 129.431 M337.104 147.954 C 337.180 159.841,337.081 164.661,336.756 165.054 C 336.381 165.505,331.706 165.600,309.751 165.600 L 283.200 165.600 283.200 181.800 L 283.200 198.000 306.992 198.000 L 330.785 198.000 331.004 198.900 C 331.124 199.395,331.172 207.000,331.111 215.800 L 331.000 231.800 307.100 231.903 L 283.200 232.006 283.200 255.923 C 283.200 273.992,283.083 279.957,282.720 280.320 C 282.029 281.011,245.171 281.011,244.480 280.320 C 243.955 279.795,243.745 131.989,244.268 131.465 C 244.416 131.317,265.341 131.242,290.768 131.298 L 337.000 131.400 337.104 147.954 M133.600 166.240 C 126.151 167.147,116.050 172.257,111.839 177.250 C 102.230 188.641,99.183 203.211,103.149 218.800 C 112.186 254.324,162.123 256.148,173.794 221.381 C 176.876 212.200,176.832 200.395,173.680 190.600 C 168.428 174.277,151.600 164.050,133.600 166.240 " stroke="none" fill="#040404" fill-rule="evenodd"/></g></svg>